<svg width="24.000000" height="24.000000" viewBox="0 0 24 24" fill="none" xmlns="http://www.w3.org/2000/svg" xmlns:xlink="http://www.w3.org/1999/xlink">
	<desc>
			Created with Pixso.
	</desc>
	<defs>
		<clipPath id="clip35_600">
			<rect id="Archive" width="24.000000" height="24.000000" fill="white" fill-opacity="0"/>
		</clipPath>
	</defs>
	<g clip-path="url(#clip35_600)">
		<path id="Vector" d="M6.58276 2.13306C7.11365 1.99976 7.66455 1.99988 8.51831 2L15.4817 2C16.3354 1.99988 16.8864 1.99976 17.4172 2.13306C17.6337 2.18738 17.8457 2.25806 18.0514 2.34448C18.5562 2.5564 18.9968 2.88696 19.6797 3.39941L19.8491 3.52637C20.59 4.08154 21.1034 4.46631 21.4432 4.99329C21.5809 5.20667 21.6948 5.43457 21.783 5.67273C22.0006 6.26074 22.0004 6.90234 22 7.82812L21.9999 15.772L21.9999 15.7721C22 17.0442 22 18.0696 21.8915 18.8761C21.7789 19.7134 21.5381 20.4183 20.9783 20.9783C20.4183 21.5382 19.7133 21.7791 18.876 21.8916C18.0696 22 17.0441 22 15.772 22L8.22803 22C6.95593 22 5.93042 22 5.1239 21.8916C4.65295 21.8282 4.22388 21.7244 3.83887 21.5459C3.53943 21.4071 3.26672 21.2233 3.02173 20.9783C2.46179 20.4183 2.22095 19.7134 2.1084 18.876C2 18.0696 2 17.0442 2 15.772L2 11.0068C2 10.8989 2 10.7927 2.00012 10.6884L2 7.82812C1.99963 6.90234 1.99939 6.26074 2.21704 5.67273C2.30518 5.43457 2.41907 5.20667 2.55676 4.99329C2.89661 4.46631 3.41003 4.08154 4.15088 3.52637L4.32031 3.39941C5.0033 2.88696 5.44385 2.5564 5.94861 2.34448C6.1543 2.25806 6.36633 2.18738 6.58276 2.13306ZM18.9138 4.56909C19.1495 4.74597 19.343 4.89197 19.5037 5.01672C19.3036 4.96655 19.0942 4.92847 18.876 4.89905C18.0695 4.79065 17.0441 4.79065 15.7719 4.79065L8.22803 4.79065C6.95581 4.79065 5.93042 4.79065 5.1239 4.89905C4.90576 4.92847 4.69641 4.96643 4.49646 5.0166C4.65698 4.89197 4.85046 4.74597 5.08618 4.56909C5.86462 3.98523 6.16235 3.76807 6.48877 3.63098C6.62952 3.5719 6.77454 3.52356 6.92261 3.48645C7.26587 3.40027 7.6344 3.39539 8.60742 3.39539L15.3926 3.39539C16.3656 3.39539 16.7341 3.40027 17.0774 3.48645C17.2255 3.52356 17.3705 3.5719 17.5112 3.63098C17.8376 3.76807 18.1354 3.98523 18.9138 4.56909ZM4.00842 19.9916C4.10645 20.0897 4.2196 20.1747 4.35986 20.2476C4.56482 20.354 4.82751 20.4342 5.18567 20.4906C5.22583 20.4969 5.26721 20.5029 5.30994 20.5087C5.39771 20.5205 5.48914 20.5309 5.58447 20.5399C6.25171 20.6035 7.11072 20.6046 8.27905 20.6046L15.7208 20.6046C17.0562 20.6046 17.9873 20.6031 18.6901 20.5087C19.3726 20.4169 19.734 20.249 19.9915 19.9916C20.2489 19.7341 20.4167 19.3727 20.5085 18.6901C20.603 17.9874 20.6045 17.0562 20.6045 15.7209L20.6045 11.0697C20.6045 9.7345 20.603 8.80322 20.5085 8.10059C20.4167 7.41797 20.2489 7.05652 19.9915 6.79907C19.734 6.54163 19.3726 6.37378 18.6901 6.28198C17.9873 6.1875 17.0562 6.18604 15.7208 6.18604L8.27905 6.18604C6.94373 6.18604 6.01245 6.1875 5.30981 6.28198C4.62732 6.37378 4.26587 6.54163 4.00842 6.79907C3.75098 7.05652 3.58301 7.41797 3.49133 8.10059C3.40405 8.74915 3.39612 9.59241 3.39539 10.7684L3.39539 15.7209C3.39539 17.0562 3.39685 17.9874 3.49133 18.6902C3.58313 19.3727 3.75098 19.7341 4.00842 19.9916ZM12.75 11C12.75 10.5858 12.4142 10.25 12 10.25C11.5858 10.25 11.25 10.5858 11.25 11L11.25 15.3987L9.4801 13.9238C9.16199 13.6587 8.68896 13.7017 8.42383 14.0199C8.15869 14.338 8.20166 14.811 8.5199 15.0762L11.5199 17.5762C11.798 17.808 12.202 17.808 12.4801 17.5762L15.4801 15.0762C15.7983 14.811 15.8413 14.338 15.5762 14.0199C15.311 13.7017 14.838 13.6587 14.5199 13.9238L12.75 15.3987L12.75 11Z" fill="#1B1D24" fill-opacity="1.000000" fill-rule="evenodd"/>
	</g>
</svg>
