<svg width="24.000000" height="24.000000" viewBox="0 0 24 24" fill="none" xmlns="http://www.w3.org/2000/svg" xmlns:xlink="http://www.w3.org/1999/xlink">
	<desc>
			Created with Pixso.
	</desc>
	<defs>
		<clipPath id="clip342_706">
			<rect id="Attach_document" rx="3.000000" width="24.000000" height="24.000000" fill="white" fill-opacity="0"/>
		</clipPath>
	</defs>
	<g clip-path="url(#clip342_706)">
		<path id="Vector" d="M14.4064 3.62549C13.8806 3.40771 13.286 3.39539 11.7081 3.39539L10.1395 3.39539C8.36572 3.39539 7.10559 3.39685 6.14966 3.52539C5.21375 3.65125 4.67456 3.88721 4.28088 4.28088C3.88721 4.67456 3.65112 5.21375 3.52539 6.14966C3.39685 7.10559 3.39539 8.36584 3.39539 10.1395L3.39539 13.8605C3.39539 15.6343 3.39685 16.8944 3.52539 17.8503C3.65112 18.7863 3.88721 19.3254 4.28088 19.7191C4.67456 20.1128 5.21375 20.3489 6.14966 20.4746C7.10559 20.6031 8.36572 20.6046 10.1395 20.6046L12.1885 20.6046C12.5636 20.6046 12.8716 20.9012 12.8857 21.2761C12.9005 21.6714 12.5841 22 12.1885 22L10.0869 22C8.37744 22 7.02344 22 5.96375 21.8575C4.87305 21.7109 3.99036 21.402 3.29419 20.7058C2.59802 20.0096 2.28906 19.127 2.14246 18.0363C2 16.9766 2 15.6226 2 13.913L2 10.087C2 8.37756 2 7.02344 2.14246 5.96375C2.28906 4.87317 2.59802 3.99036 3.29419 3.29419C3.99036 2.59802 4.87305 2.28918 5.96375 2.14246C7.02344 2 8.37744 2 10.087 2L11.8534 2C13.2341 1.99963 14.1267 1.99939 14.9403 2.33643C15.754 2.67346 16.385 3.30481 17.361 4.28137L19.7186 6.63904C20.4381 7.35803 20.9702 7.88989 21.3353 8.44531C21.5469 8.76733 21.375 9.1792 21.019 9.32666C20.6631 9.47412 20.2531 9.30164 20.0172 8.99695C19.7452 8.64575 19.3236 8.21729 18.6293 7.52295L16.4771 5.37073C15.3613 4.255 14.9321 3.84326 14.4064 3.62549ZM13.8605 6.18604C14.2457 6.18604 14.5581 6.49841 14.5581 6.88379L14.5581 8.27905C14.5581 8.7373 14.5596 9.01086 14.5859 9.20691C14.598 9.29663 14.6123 9.34167 14.6206 9.36194C14.6226 9.36658 14.624 9.36975 14.625 9.37146L14.6262 9.37378L14.6285 9.375C14.6302 9.37598 14.6334 9.37744 14.6381 9.37939C14.6583 9.38782 14.7034 9.40198 14.7931 9.41406C14.9891 9.44043 15.2627 9.44189 15.7209 9.44189L17.1162 9.44189C17.5016 9.44189 17.814 9.75427 17.814 10.1395C17.814 10.5249 17.5016 10.8373 17.1162 10.8373L15.6792 10.8373C15.2766 10.8373 14.9075 10.8373 14.6072 10.797C14.2765 10.7526 13.927 10.6479 13.6395 10.3605C13.3521 10.073 13.2476 9.72351 13.203 9.39282C13.1627 9.09253 13.1627 8.72339 13.1627 8.32068L13.1627 6.88379C13.1627 6.49841 13.4751 6.18604 13.8605 6.18604ZM19 13.75C19 13.3362 19.3362 13 19.75 13C20.1638 13 20.5 13.3362 20.5 13.75L20.5 18.25C20.5 19.4928 19.4928 20.5 18.25 20.5C17.0072 20.5 16 19.4928 16 18.25L16 15.25C16 14.8358 15.6642 14.5 15.25 14.5C14.8358 14.5 14.5 14.8358 14.5 15.25L14.5 18.25C14.5 20.3212 16.1788 22 18.25 22C20.3212 22 22 20.3212 22 18.25L22 13.75C22 12.5078 20.9922 11.5 19.75 11.5C18.5078 11.5 17.5 12.5078 17.5 13.75L17.5 17.25C17.5 17.6642 17.8358 18 18.25 18C18.6642 18 19 17.6642 19 17.25L19 13.75Z" fill="#1B1D24" fill-opacity="1.000000" fill-rule="evenodd"/>
	</g>
</svg>
