<svg width="24" height="24" viewBox="0 0 24 24" fill="none" xmlns="http://www.w3.org/2000/svg">
<path fill-rule="evenodd" clip-rule="evenodd" d="M14.077 7.02884C14.077 6.64649 14.3869 6.33653 14.7693 6.33653H16.6154C16.9027 6.33653 17.1601 6.51394 17.2624 6.78238L19.6633 13.0849C19.8726 13.048 20.0879 13.0288 20.3077 13.0288C22.3469 13.0288 24 14.6819 24 16.7211C24 18.7604 22.3469 20.4135 20.3077 20.4135C18.2685 20.4135 16.6154 18.7604 16.6154 16.7211C16.6154 15.3928 17.3168 14.2284 18.3695 13.5779L17.3704 10.9552C17.1213 11.4796 16.8178 12.0988 16.4818 12.7428C16.0286 13.6116 15.511 14.5358 14.9843 15.3365C14.4699 16.1183 13.9028 16.8518 13.3385 17.275C13.2421 17.3473 13.1285 17.3932 13.009 17.4081C11.2347 17.6299 9.0685 17.6433 7.28011 17.597C6.88687 19.2134 5.42973 20.4135 3.69231 20.4135C1.6531 20.4135 0 18.7604 0 16.7211C0 14.6819 1.6531 13.0288 3.69231 13.0288C4.83635 13.0288 5.85887 13.5492 6.53614 14.366L9.08863 12.9614L7.87447 11.4161C7.83956 11.3717 7.81095 11.3244 7.78852 11.2751L6.89327 11.3827C6.10164 11.4778 5.49973 11.3086 5.41053 10.5659C5.32133 9.82327 5.59085 8.94548 6.41239 8.98411C6.82507 9.00352 7.21743 9.2071 7.62748 9.41988C8.03374 9.63068 8.45739 9.85051 8.93539 9.90916C9.37381 9.96295 9.7989 9.92115 10.1315 9.85982C10.4735 9.79674 10.8326 10.0202 10.8741 10.3656C10.9093 10.6589 10.7005 10.9253 10.4071 10.9605L9.3748 11.0845L10.318 12.2849L16.5669 8.84624L16.1383 7.72115H14.7693C14.3869 7.72115 14.077 7.41119 14.077 7.02884ZM7.35003 16.2137C7.32002 15.9954 7.27092 15.7831 7.20447 15.5787L9.95555 14.0648L11.5951 16.1515C10.2117 16.2462 8.69058 16.2477 7.35003 16.2137ZM5.28723 15.0533C4.87285 14.6569 4.31101 14.4135 3.69231 14.4135C2.4178 14.4135 1.38462 15.4466 1.38462 16.7211C1.38462 17.9957 2.4178 19.0288 3.69231 19.0288C4.67628 19.0288 5.51642 18.413 5.84831 17.5457C5.35578 17.5234 4.92205 17.4989 4.57225 17.477C4.28094 17.4588 4.04755 17.4424 3.88655 17.4305C3.80604 17.4246 3.74362 17.4197 3.70107 17.4164L3.65238 17.4125L3.6353 17.4111L3.69236 16.7211C3.63486 17.4111 3.6353 17.4111 3.6353 17.4111C3.33105 17.3857 3.07889 17.164 3.01525 16.8654C2.95162 16.5668 3.0911 16.2618 3.35859 16.1146L5.28723 15.0533ZM18.8771 14.9103C18.3428 15.333 18 15.987 18 16.7211C18 17.9957 19.0332 19.0288 20.3077 19.0288C21.5822 19.0288 22.6154 17.9957 22.6154 16.7211C22.6154 15.4466 21.5822 14.4135 20.3077 14.4135C20.2618 14.4135 20.2162 14.4148 20.171 14.4174L20.9547 16.4747C21.0908 16.832 20.9115 17.232 20.5542 17.3681C20.1969 17.5042 19.7969 17.3249 19.6608 16.9676L18.8771 14.9103ZM15.9164 10.7846L11.1849 13.3883L12.9969 15.6945C13.2507 15.4045 13.5312 15.026 13.8275 14.5755C14.3185 13.8291 14.8119 12.9502 15.2542 12.1024C15.4945 11.6418 15.7181 11.1934 15.9164 10.7846Z" fill="white"/>
</svg>
