<svg width="24" height="25" viewBox="0 0 24 25" fill="none" xmlns="http://www.w3.org/2000/svg">
<path fill-rule="evenodd" clip-rule="evenodd" d="M6.41861 3.5C6.80392 3.5 7.11628 3.81236 7.11628 4.19767V4.82888C7.47377 4.82558 7.85839 4.82558 8.27065 4.82558H11.3023V4.19767C11.3023 3.81236 11.6147 3.5 12 3.5C12.3853 3.5 12.6977 3.81236 12.6977 4.19767V4.82558H15.7294C16.1416 4.82558 16.5262 4.82558 16.8837 4.82888V4.19767C16.8837 3.81236 17.1961 3.5 17.5814 3.5C17.9667 3.5 18.2791 3.81236 18.2791 4.19767V4.87409C19.3967 4.9519 20.2992 5.16824 20.9783 5.8473C21.5382 6.40722 21.779 7.11222 21.8916 7.94953C22 8.75602 22 9.78143 22 11.0536V15.272C22 16.5441 22 17.5696 21.8916 18.376C21.779 19.2134 21.5382 19.9184 20.9783 20.4783C20.4184 21.0382 19.7134 21.279 18.876 21.3916C18.0696 21.5 17.0441 21.5 15.772 21.5H8.22803C6.95585 21.5 5.93043 21.5 5.12395 21.3916C4.28664 21.279 3.58164 21.0382 3.02172 20.4783C2.4618 19.9184 2.22097 19.2134 2.10839 18.376C1.99997 17.5696 1.99998 16.5442 2 15.272V11.0536C1.99998 9.78143 1.99997 8.75601 2.10839 7.94953C2.22097 7.11222 2.4618 6.40722 3.02172 5.8473C3.70079 5.16824 4.60333 4.9519 5.72093 4.87409V4.19767C5.72093 3.81236 6.03329 3.5 6.41861 3.5ZM8.27907 6.22093C7.56507 6.22093 6.96181 6.221 6.43962 6.23673C4.98409 6.28058 4.39032 6.45202 4.00838 6.83396C3.75093 7.09142 3.58307 7.45288 3.4913 8.13546C3.39683 8.83811 3.39535 9.76938 3.39535 11.1047V15.2209C3.39535 16.5562 3.39683 17.4875 3.4913 18.1901C3.58307 18.8727 3.75093 19.2342 4.00838 19.4916C4.26584 19.7491 4.6273 19.9169 5.30988 20.0087C6.01253 20.1032 6.9438 20.1047 8.27907 20.1047H15.7209C17.0562 20.1047 17.9875 20.1032 18.6901 20.0087C19.3727 19.9169 19.7342 19.7491 19.9916 19.4916C20.2491 19.2342 20.4169 18.8727 20.5087 18.1901C20.6032 17.4875 20.6047 16.5562 20.6047 15.2209V11.1047C20.6047 9.76938 20.6032 8.83811 20.5087 8.13546C20.4169 7.45288 20.2491 7.09142 19.9916 6.83396C19.6097 6.45202 19.0159 6.28058 17.5604 6.23673C17.0382 6.221 16.4349 6.22093 15.7209 6.22093H8.27907Z" fill="#375165"/>
<path d="M5.95349 10.1744C5.95349 9.56279 5.95349 9.25698 6.12241 9.05115C6.15333 9.01347 6.18789 8.97892 6.22557 8.94799C6.4314 8.77907 6.73721 8.77907 7.34884 8.77907C7.96046 8.77907 8.26627 8.77907 8.47211 8.94799C8.50979 8.97892 8.54434 9.01347 8.57526 9.05115C8.74419 9.25698 8.74419 9.56279 8.74419 10.1744C8.74419 10.786 8.74419 11.0919 8.57526 11.2977C8.54434 11.3354 8.50979 11.3699 8.47211 11.4008C8.26627 11.5698 7.96046 11.5698 7.34884 11.5698C6.73721 11.5698 6.4314 11.5698 6.22557 11.4008C6.18789 11.3699 6.15333 11.3354 6.12241 11.2977C5.95349 11.0919 5.95349 10.786 5.95349 10.1744Z" fill="#375165"/>
<path d="M5.95349 14.8256C5.95349 14.214 5.95349 13.9081 6.12241 13.7023C6.15333 13.6646 6.18789 13.6301 6.22557 13.5992C6.4314 13.4302 6.73721 13.4302 7.34884 13.4302C7.96046 13.4302 8.26627 13.4302 8.47211 13.5992C8.50979 13.6301 8.54434 13.6646 8.57526 13.7023C8.74419 13.9081 8.74419 14.214 8.74419 14.8256C8.74419 15.4372 8.74419 15.743 8.57526 15.9488C8.54434 15.9865 8.50979 16.0211 8.47211 16.052C8.26627 16.2209 7.96046 16.2209 7.34884 16.2209C6.73721 16.2209 6.4314 16.2209 6.22557 16.052C6.18789 16.0211 6.15333 15.9865 6.12241 15.9488C5.95349 15.743 5.95349 15.4372 5.95349 14.8256Z" fill="#375165"/>
<path d="M10.6047 10.1744C10.6047 9.56279 10.6047 9.25698 10.7736 9.05115C10.8045 9.01347 10.839 8.97892 10.8767 8.94799C11.0826 8.77907 11.3884 8.77907 12 8.77907C12.6116 8.77907 12.9174 8.77907 13.1233 8.94799C13.1609 8.97892 13.1955 9.01347 13.2264 9.05115C13.3953 9.25698 13.3953 9.56279 13.3953 10.1744C13.3953 10.786 13.3953 11.0919 13.2264 11.2977C13.1955 11.3354 13.1609 11.3699 13.1233 11.4008C12.9174 11.5698 12.6116 11.5698 12 11.5698C11.3884 11.5698 11.0826 11.5698 10.8767 11.4008C10.839 11.3699 10.8045 11.3354 10.7736 11.2977C10.6047 11.0919 10.6047 10.786 10.6047 10.1744Z" fill="#375165"/>
<path d="M10.6047 14.8256C10.6047 14.214 10.6047 13.9081 10.7736 13.7023C10.8045 13.6646 10.839 13.6301 10.8767 13.5992C11.0826 13.4302 11.3884 13.4302 12 13.4302C12.6116 13.4302 12.9174 13.4302 13.1233 13.5992C13.1609 13.6301 13.1955 13.6646 13.2264 13.7023C13.3953 13.9081 13.3953 14.214 13.3953 14.8256C13.3953 15.4372 13.3953 15.743 13.2264 15.9488C13.1955 15.9865 13.1609 16.0211 13.1233 16.052C12.9174 16.2209 12.6116 16.2209 12 16.2209C11.3884 16.2209 11.0826 16.2209 10.8767 16.052C10.839 16.0211 10.8045 15.9865 10.7736 15.9488C10.6047 15.743 10.6047 15.4372 10.6047 14.8256Z" fill="#375165"/>
<path d="M15.2558 10.1744C15.2558 9.56279 15.2558 9.25698 15.4247 9.05115C15.4557 9.01347 15.4902 8.97892 15.5279 8.94799C15.7337 8.77907 16.0395 8.77907 16.6512 8.77907C17.2628 8.77907 17.5686 8.77907 17.7744 8.94799C17.8121 8.97892 17.8467 9.01347 17.8776 9.05115C18.0465 9.25698 18.0465 9.56279 18.0465 10.1744C18.0465 10.786 18.0465 11.0919 17.8776 11.2977C17.8467 11.3354 17.8121 11.3699 17.7744 11.4008C17.5686 11.5698 17.2628 11.5698 16.6512 11.5698C16.0395 11.5698 15.7337 11.5698 15.5279 11.4008C15.4902 11.3699 15.4557 11.3354 15.4247 11.2977C15.2558 11.0919 15.2558 10.786 15.2558 10.1744Z" fill="#375165"/>
</svg>
