<svg width="76" height="102" viewBox="0 0 76 102" fill="none" xmlns="http://www.w3.org/2000/svg">
<path d="M0 50.735C0 22.7598 22.7629 0 50.742 0C59.4278 0 67.6109 2.19339 74.7663 6.05529C75.4302 6.41363 75.612 7.27536 75.1674 7.88488C74.7872 8.40611 74.0773 8.55734 73.5091 8.25171C66.7246 4.60223 58.9707 2.53032 50.742 2.53032C24.1583 2.53032 2.53067 24.155 2.53067 50.735C2.53067 76.891 23.4737 98.2484 49.4734 98.9233C50.1719 98.9414 50.742 99.5062 50.742 100.205C50.742 100.904 50.1718 101.472 49.4732 101.454C22.078 100.779 0 78.2862 0 50.735Z" fill="url(#paint0_linear_47_314)"/>
<defs>
<linearGradient id="paint0_linear_47_314" x1="0" y1="0" x2="76" y2="0" gradientUnits="userSpaceOnUse">
<stop stop-color="#B98947"/>
<stop offset="1" stop-color="#FAF0A1"/>
</linearGradient>
</defs>
</svg>
