<svg width="24.000000" height="24.000000" viewBox="0 0 24 24" fill="none" xmlns="http://www.w3.org/2000/svg" xmlns:xlink="http://www.w3.org/1999/xlink">
	<desc>
			Created with Pixso.
	</desc>
	<defs>
		<clipPath id="clip34_563">
			<rect id="Home" width="24.000000" height="24.000000" fill="white" fill-opacity="0"/>
		</clipPath>
	</defs>
	<g clip-path="url(#clip34_563)">
		<path id="Subtract" d="M15.7731 5.53833C16.176 5.79272 16.5193 6.00928 16.7876 6.21692C17.0736 6.43811 17.3165 6.67969 17.4949 7.00366C17.6731 7.32776 17.7474 7.66284 17.7817 8.02368C17.814 8.3623 17.814 8.76941 17.814 9.24756L17.814 10.7968L19.5205 11.6171C20.0076 11.8512 20.421 12.0499 20.7451 12.2499C21.0901 12.4626 21.386 12.7069 21.6063 13.0581C21.8265 13.4093 21.9182 13.7827 21.9604 14.1871C22 14.567 22 15.0273 22 15.5696L22 19.4727C22 19.877 22.0001 20.2477 21.9597 20.5493C21.9153 20.8815 21.8107 21.2324 21.5232 21.5211C21.2357 21.8098 20.8862 21.9149 20.5555 21.9596C20.2552 22.0001 19.8861 22 19.4836 22L4.51636 22C4.11377 22 3.74475 22.0001 3.44446 21.9596C3.11377 21.9149 2.76428 21.8098 2.47681 21.5211C2.18933 21.2324 2.08472 20.8815 2.04028 20.5493C1.99988 20.2477 2 19.877 2 19.4727L2 9.22412C2 8.75134 2 8.34863 2.03162 8.01343C2.06531 7.65625 2.13818 7.32434 2.31311 7.00281C2.48804 6.68115 2.72668 6.44019 3.00781 6.21875C3.27161 6.01086 3.60889 5.79333 4.005 5.53796L8.97388 2.33337C9.078 2.26624 9.19653 2.1897 9.3075 2.13367C9.43994 2.06677 9.61304 2.0011 9.82654 2C10.0399 1.99902 10.2136 2.06299 10.3467 2.12866C10.4583 2.18359 10.5775 2.25891 10.6823 2.32507L15.7731 5.53833ZM16.4186 20.5986L16.4186 9.27893C16.4186 8.76086 16.4178 8.42114 16.3928 8.15686C16.369 7.90747 16.3274 7.7793 16.2736 7.68152C16.2197 7.58374 16.1339 7.47998 15.9363 7.32715C15.7268 7.16516 15.4408 6.98376 15.0042 6.70813L9.95862 3.52344C9.90833 3.4917 9.86829 3.46643 9.8335 3.44507C9.79895 3.4668 9.75916 3.49243 9.70923 3.52466L4.78503 6.70032C4.35583 6.97705 4.07483 7.15918 3.86914 7.32129C3.67493 7.47424 3.59058 7.57751 3.53772 7.67456C3.48486 7.77173 3.44397 7.8988 3.42078 8.14551C3.39612 8.40698 3.39539 8.74292 3.39539 9.25525L3.39539 19.4308C3.39539 19.891 3.39685 20.1656 3.42322 20.3625C3.4353 20.4528 3.44946 20.4979 3.45789 20.5183C3.45984 20.5231 3.4613 20.5261 3.46228 20.528L3.4635 20.5302L3.46582 20.5315C3.46753 20.5325 3.4707 20.5339 3.47534 20.5359C3.49561 20.5442 3.54065 20.5586 3.63037 20.5707C3.82642 20.5972 4.09998 20.5986 4.55823 20.5986L16.4186 20.5986ZM5.95349 9.62122C5.69666 9.62122 5.4884 9.83032 5.4884 10.0884L5.4884 18.0294C5.4884 18.2875 5.69666 18.4966 5.95349 18.4966L7.34888 18.4966C7.60571 18.4966 7.81396 18.2875 7.81396 18.0294L7.81396 10.0884C7.81396 9.83032 7.60571 9.62122 7.34888 9.62122L5.95349 9.62122ZM9.7356 10.0884C9.7356 9.83032 9.94385 9.62122 10.2008 9.62122L11.5961 9.62122C11.853 9.62122 12.0613 9.83032 12.0613 10.0884L12.0613 11.4897C12.0613 11.7477 11.853 11.9569 11.5961 11.9569L10.2008 11.9569C9.94385 11.9569 9.7356 11.7477 9.7356 11.4897L9.7356 10.0884ZM17.814 12.3503L17.814 20.5986L19.4419 20.5986C19.9001 20.5986 20.1736 20.5972 20.3696 20.5707C20.4595 20.5586 20.5044 20.5442 20.5247 20.5359C20.5294 20.5339 20.5325 20.5325 20.5343 20.5315L20.5366 20.5302L20.5378 20.528L20.5392 20.5253L20.5422 20.5183C20.5505 20.4979 20.5648 20.4528 20.5768 20.3625C20.6031 20.1656 20.6047 19.891 20.6047 19.4308L20.6047 15.6047C20.6047 15.0179 20.6038 14.6315 20.5726 14.3331C20.5432 14.0513 20.4917 13.9104 20.4257 13.8051C20.3597 13.6998 20.2554 13.5923 20.0149 13.444C19.7604 13.287 19.4137 13.1194 18.8866 12.866L17.814 12.3503ZM9.7356 13.3583C9.7356 13.1002 9.94385 12.8911 10.2008 12.8911L11.5961 12.8911C11.853 12.8911 12.0613 13.1002 12.0613 13.3583L12.0613 14.7596C12.0613 15.0176 11.853 15.2267 11.5961 15.2267L10.2008 15.2267C9.94385 15.2267 9.7356 15.0176 9.7356 14.7596L9.7356 13.3583ZM9.7356 16.6281C9.7356 16.3701 9.94385 16.161 10.2008 16.161L11.5961 16.161C11.853 16.161 12.0613 16.3701 12.0613 16.6281L12.0613 18.0294C12.0613 18.2875 11.853 18.4966 11.5961 18.4966L10.2008 18.4966C9.94385 18.4966 9.7356 18.2875 9.7356 18.0294L9.7356 16.6281Z" fill="#1B1D24" fill-opacity="1.000000" fill-rule="evenodd"/>
	</g>
</svg>
