<svg width="24.000000" height="24.000000" viewBox="0 0 24 24" fill="none" xmlns="http://www.w3.org/2000/svg" xmlns:xlink="http://www.w3.org/1999/xlink">
	<desc>
			Created with Pixso.
	</desc>
	<defs>
		<clipPath id="clip100_679">
			<rect id="List" width="24.000000" height="24.000000" fill="white" fill-opacity="0"/>
		</clipPath>
	</defs>
	<g clip-path="url(#clip100_679)">
		<path id="Vector 18 (Stroke)" d="M7.74841 2L17.6298 2C18.4656 2 19.1625 2 19.7158 2.07434C20.2998 2.15283 20.827 2.32556 21.2507 2.74927C21.6744 3.17297 21.8472 3.7002 21.9257 4.28418C22 4.83752 22 5.53442 22 6.37024L22 17.6298C22 18.4656 22 19.1625 21.9257 19.7158C21.8472 20.2998 21.6744 20.827 21.2507 21.2507C20.827 21.6744 20.2998 21.8472 19.7158 21.9257C19.1625 22 18.4656 22 17.6298 22L7.74841 22C6.9126 22 6.21558 22 5.66235 21.9257C5.07837 21.8472 4.55103 21.6744 4.12744 21.2507C3.70374 20.827 3.53101 20.2998 3.45251 19.7158C3.37805 19.1625 3.37805 18.4656 3.37817 17.6298L3.37817 16.9354L2.69763 16.9354C2.31238 16.9354 2 16.623 2 16.2377C2 15.8524 2.31238 15.54 2.69763 15.54L3.37817 15.54L3.37817 12.6976L2.69763 12.6976C2.31238 12.6976 2 12.3853 2 12C2 11.6147 2.31238 11.3024 2.69763 11.3024L3.37817 11.3024L3.37817 8.45996L2.69763 8.45996C2.31238 8.45996 2 8.14758 2 7.76233C2 7.37695 2.31238 7.06458 2.69763 7.06458L3.37817 7.06458L3.37817 6.37024C3.37805 5.53442 3.37805 4.83752 3.45251 4.28418C3.53101 3.7002 3.70374 3.17297 4.12744 2.74927C4.55103 2.32556 5.07837 2.15283 5.66235 2.07434C6.21558 2 6.9126 2 7.74841 2ZM5.84827 3.45728C5.41895 3.51501 5.23523 3.61475 5.11401 3.73596C4.9928 3.85718 4.89307 4.04089 4.83533 4.47009C4.7749 4.91943 4.77344 5.52185 4.77344 6.41858L4.77344 17.5814C4.77344 18.4781 4.7749 19.0806 4.83533 19.5299C4.89307 19.9591 4.9928 20.1428 5.11401 20.264C5.23523 20.3853 5.41895 20.485 5.84827 20.5427C6.29761 20.6031 6.90002 20.6046 7.79675 20.6046L17.5814 20.6046C18.4781 20.6046 19.0806 20.6031 19.5299 20.5427C19.9591 20.485 20.1428 20.3853 20.264 20.264C20.3853 20.1428 20.485 19.9591 20.5427 19.5299C20.6031 19.0806 20.6046 18.4781 20.6046 17.5814L20.6046 6.41858C20.6046 5.52185 20.6031 4.91943 20.5427 4.47009C20.485 4.04089 20.3853 3.85718 20.264 3.73596C20.1428 3.61475 19.9591 3.51501 19.5299 3.45728C19.0806 3.39685 18.4781 3.39539 17.5814 3.39539L7.79675 3.39539C6.90002 3.39539 6.29761 3.39685 5.84827 3.45728ZM7.54602 7.76233C7.54602 7.37695 7.8584 7.06458 8.24377 7.06458L17.1344 7.06458C17.5197 7.06458 17.832 7.37695 17.832 7.76233C17.832 8.14758 17.5197 8.45996 17.1344 8.45996L8.24377 8.45996C7.8584 8.45996 7.54602 8.14758 7.54602 7.76233ZM7.54602 12C7.54602 11.6147 7.8584 11.3024 8.24377 11.3024L17.1344 11.3024C17.5197 11.3024 17.832 11.6147 17.832 12C17.832 12.3853 17.5197 12.6976 17.1344 12.6976L8.24377 12.6976C7.8584 12.6976 7.54602 12.3853 7.54602 12ZM7.54602 16.2377C7.54602 15.8524 7.8584 15.54 8.24377 15.54L17.1344 15.54C17.5197 15.54 17.832 15.8524 17.832 16.2377C17.832 16.623 17.5197 16.9354 17.1344 16.9354L8.24377 16.9354C7.8584 16.9354 7.54602 16.623 7.54602 16.2377Z" fill="#1B1D24" fill-opacity="1.000000" fill-rule="evenodd"/>
	</g>
</svg>
