<svg width="24.000000" height="24.000000" viewBox="0 0 24 24" fill="none" xmlns="http://www.w3.org/2000/svg" xmlns:xlink="http://www.w3.org/1999/xlink">
	<desc>
			Created with Pixso.
	</desc>
	<defs>
		<clipPath id="clip34_553">
			<rect id="Main " width="24.000000" height="24.000000" fill="white" fill-opacity="0"/>
		</clipPath>
	</defs>
	<g clip-path="url(#clip34_553)">
		<path id="Union" d="M6.03723 2.00024C5.31689 2.01843 4.87292 2.93542 3.98499 4.76941L2.94495 6.91772C2.1676 8.52319 1.77893 9.32605 2.13025 9.91296C2.48145 10.5 3.35059 10.5 5.08875 10.5L7.29883 10.5C9.12317 10.5 10.0353 10.5 10.3823 9.88721C10.7294 9.27429 10.2822 8.45325 9.38782 6.81116L8.21777 4.66284C7.24438 2.87573 6.75769 1.98218 6.03723 2.00024ZM13.847 2.41846C13.4286 2.83679 13.4286 3.51025 13.4286 4.85718L13.4286 7.71423C13.4286 9.06116 13.4286 9.73462 13.847 10.153C14.2654 10.5714 14.9388 10.5714 16.2858 10.5714L19.1428 10.5714C20.4897 10.5714 21.1632 10.5714 21.5815 10.153C22 9.73462 22 9.06116 22 7.71423L22 4.85718C22 3.51025 22 2.83679 21.5815 2.41846C21.1632 2 20.4897 2 19.1428 2L16.2858 2C14.9388 2 14.2654 2 13.847 2.41846ZM19.1428 3.5L16.2858 3.5C15.6084 3.5 15.2263 3.50281 14.962 3.53345C14.9314 3.79773 14.9286 4.17981 14.9286 4.85718L14.9286 7.71423C14.9286 8.3916 14.9314 8.77368 14.962 9.03796C15.2263 9.0686 15.6084 9.07141 16.2858 9.07141L19.1428 9.07141C19.8202 9.07141 20.2023 9.0686 20.4666 9.03796C20.4972 8.77368 20.5 8.3916 20.5 7.71423L20.5 4.85718C20.5 4.17981 20.4972 3.79773 20.4666 3.53345C20.2023 3.50281 19.8202 3.5 19.1428 3.5ZM8.07056 7.52856L6.90039 5.38037C6.54639 4.7301 6.29114 4.2655 6.08398 3.92981C5.89246 4.27612 5.65894 4.75403 5.33508 5.4231L4.29504 7.57129C3.98242 8.21692 3.7738 8.65283 3.6438 8.97705C3.97107 8.9978 4.42358 9 5.08875 9L7.29883 9C7.99963 9 8.47913 8.9978 8.82654 8.97546C8.67297 8.6394 8.43079 8.18994 8.07056 7.52856ZM2.41846 13.847C2 14.2654 2 14.9388 2 16.2858L2 19.1428C2 20.4897 2 21.1632 2.41846 21.5815C2.83679 22 3.51025 22 4.85718 22L7.71423 22C9.06116 22 9.73462 22 10.153 21.5815C10.5714 21.1632 10.5714 20.4897 10.5714 19.1428L10.5714 16.2858C10.5714 14.9388 10.5714 14.2654 10.153 13.847C9.73462 13.4286 9.06116 13.4286 7.71423 13.4286L4.85718 13.4286C3.51025 13.4286 2.83679 13.4286 2.41846 13.847ZM17.7142 22C20.0812 22 22 20.0812 22 17.7142C22 15.3474 20.0812 13.4286 17.7142 13.4286C15.3474 13.4286 13.4286 15.3474 13.4286 17.7142C13.4286 20.0812 15.3474 22 17.7142 22ZM9.07141 19.1428L9.07141 16.2858C9.07141 15.6084 9.0686 15.2263 9.03796 14.962C8.77368 14.9314 8.3916 14.9286 7.71423 14.9286L4.85718 14.9286C4.17981 14.9286 3.79773 14.9314 3.53345 14.962C3.50281 15.2263 3.5 15.6084 3.5 16.2858L3.5 19.1428C3.5 19.8202 3.50281 20.2023 3.53345 20.4666C3.79773 20.4972 4.17981 20.5 4.85718 20.5L7.71423 20.5C8.3916 20.5 8.77368 20.4972 9.03796 20.4666C9.0686 20.2023 9.07141 19.8202 9.07141 19.1428ZM20.5 17.7142C20.5 19.2528 19.2528 20.5 17.7142 20.5C16.1758 20.5 14.9286 19.2528 14.9286 17.7142C14.9286 16.1758 16.1758 14.9286 17.7142 14.9286C19.2528 14.9286 20.5 16.1758 20.5 17.7142ZM9.00085 9.44336L9.00134 9.44714L9.00085 9.44336Z" fill="#1B1D24" fill-opacity="1.000000" fill-rule="evenodd"/>
	</g>
</svg>
