<svg width="71" height="23" viewBox="0 0 71 23" fill="none" xmlns="http://www.w3.org/2000/svg">
<path d="M0 23L13.2093 22.1786C13.2093 19.674 14.8605 15.6071 14.8605 15.6071C14.8605 15.6071 16.9582 15.6071 18.9884 15.6071C20.6395 12.3214 23.1163 5.75 24.7674 5.75C24.7674 5.75 25.593 2.46429 27.2442 2.46429C29.4166 2.46429 41.2791 9.85714 41.2791 9.85714L32.1977 23C32.1977 23 36.6702 20.6712 41.2791 19.7143C42.9203 19.3736 41.0855 15.8482 42.9302 15.6071C44.5228 15.399 46.2326 14.7857 47.0581 14.7857C47.8837 14.7857 48.736 3.90285 50.3605 5.75C56.1395 12.3214 68.0318 19.9449 71 23L61.093 9.03571L58.6163 12.3214L51.186 1.64286L42.1046 7.39286L33.0233 0.821429L30.5465 2.46429L26.4186 0L23.1163 4.92857L18.9884 3.28571L9.0814 16.4286L6.29514 15.9151L0 23Z" fill="url(#paint0_linear_47_315)"/>
<defs>
<linearGradient id="paint0_linear_47_315" x1="0" y1="0" x2="71" y2="0" gradientUnits="userSpaceOnUse">
<stop stop-color="#B98947"/>
<stop offset="1" stop-color="#FAF0A1"/>
</linearGradient>
</defs>
</svg>
