<svg width="24.000000" height="24.000000" viewBox="0 0 24 24" fill="none" xmlns="http://www.w3.org/2000/svg" xmlns:xlink="http://www.w3.org/1999/xlink">
	<desc>
			Created with Pixso.
	</desc>
	<defs>
		<clipPath id="clip36_441">
			<rect id="Person" width="24.000000" height="24.000000" fill="white" fill-opacity="0"/>
		</clipPath>
	</defs>
	<g clip-path="url(#clip36_441)">
		<path id="Vector (Stroke)" d="M12 4.38452C10.0883 4.38452 8.53845 5.93433 8.53845 7.84607C8.53845 9.75781 10.0883 11.3076 12 11.3076C13.9117 11.3076 15.4615 9.75781 15.4615 7.84607C15.4615 5.93433 13.9117 4.38452 12 4.38452ZM7.15381 7.84607C7.15381 5.16956 9.32349 2.99988 12 2.99988C14.6765 2.99988 16.8462 5.16956 16.8462 7.84607C16.8462 10.5226 14.6765 12.6923 12 12.6923C9.32349 12.6923 7.15381 10.5226 7.15381 7.84607ZM4.91028 17.0846C4.58276 17.5476 4.38464 18.1401 4.38464 18.923C4.38464 19.0717 4.43884 19.2191 4.71472 19.3932C5.02026 19.5862 5.52234 19.7537 6.24426 19.8793C7.67871 20.1289 9.69519 20.1692 12 20.1692C14.3048 20.1692 16.3213 20.1289 17.7557 19.8793C18.4777 19.7537 18.9797 19.5862 19.2853 19.3932C19.5612 19.2191 19.6154 19.0717 19.6154 18.923C19.6154 18.1401 19.4172 17.5476 19.0897 17.0846C18.7581 16.6157 18.2604 16.2332 17.5902 15.9313C16.2272 15.3176 14.2744 15.0923 12 15.0923C9.72559 15.0923 7.77283 15.3176 6.40979 15.9313C5.73962 16.2332 5.24194 16.6157 4.91028 17.0846ZM5.84131 14.6688C7.48523 13.9286 9.68616 13.7076 12 13.7076C14.3138 13.7076 16.5148 13.9286 18.1587 14.6688C18.9918 15.0439 19.7108 15.5652 20.22 16.2848C20.7332 17.0103 21 17.8907 21 18.923C21 19.6665 20.5892 20.2075 20.0244 20.5641C19.4891 20.902 18.7745 21.1074 17.993 21.2434C16.4208 21.517 14.2833 21.5538 12 21.5538C9.71667 21.5538 7.57922 21.517 6.00696 21.2434C5.22546 21.1074 4.51086 20.902 3.97559 20.5641C3.41077 20.2075 3 19.6665 3 18.923C3 17.8907 3.26685 17.0103 3.78003 16.2848C4.28918 15.5652 5.00818 15.0439 5.84131 14.6688Z" fill="#1B1D24" fill-opacity="1.000000" fill-rule="evenodd"/>
	</g>
</svg>
