<svg width="190" height="24" viewBox="0 0 190 24" fill="none" xmlns="http://www.w3.org/2000/svg">
<path d="M18.9959 18.8002L15.2783 20.214L13.1076 17.772C11.9684 18.1927 10.6852 18.4147 9.31809 18.4147C3.90959 18.4147 0 14.8977 0 9.59305C0 4.25329 3.90947 0.759464 9.31809 0.759464C14.7386 0.759464 18.6478 4.25305 18.6478 9.59305C18.6478 12.0701 17.7964 14.1616 16.3334 15.6807L18.9959 18.8002ZM4.54521 9.59323C4.54521 12.7714 6.58388 14.6175 9.31809 14.6175C12.0643 14.6175 14.103 12.7714 14.103 9.59323C14.103 6.64876 12.0643 4.80266 9.31809 4.80266C6.58388 4.80266 4.54521 6.64876 4.54521 9.59323ZM37.229 15.0495C37.229 16.1712 37.3729 17.3163 37.5168 17.8187V18.1809H33.5234L33.2596 16.9073C32.3602 17.9823 30.6453 18.4146 29.1942 18.4146C27.2515 18.4146 25.1889 17.6317 25.1889 14.9794C25.1889 12.3621 27.2036 11.5325 29.7579 10.9016L31.7966 10.3991C32.7799 10.1654 33.0797 9.89671 33.0797 9.44099C33.0797 8.58803 32.0724 8.41274 31.3288 8.41274C30.1776 8.41274 29.3741 8.82169 29.1462 10.0953L25.2967 9.47599C25.9083 6.76519 27.875 5.57344 31.6044 5.57344C34.1587 5.57344 37.2288 6.12261 37.2288 10.142L37.229 15.0495ZM30.5971 15.6221C31.7484 15.6221 33.3194 14.7107 33.3194 12.7945L30.4532 13.7292C29.8896 13.9162 29.3379 14.1382 29.3379 14.6873C29.3379 15.2832 29.9136 15.6221 30.5971 15.6221ZM54.754 5.80698L49.8491 14.9558H54.4661V18.1807H43.8052L48.6741 9.04381H44.2729V5.80722L54.754 5.80698ZM72.3037 9.06738C74.1745 9.62823 75.4217 10.82 75.4217 13.2738C75.4217 16.265 73.7068 18.1812 69.5575 18.1812H62.0384V1.00516H67.9746C72.2078 1.00516 74.1748 2.74615 74.1748 5.8074C74.1748 7.24454 73.5749 8.41308 72.3037 9.06738ZM68.0585 4.63862H66.4276V7.67653H68.0585C69.5816 7.67653 69.9893 7.01051 69.9893 6.09916C69.9893 5.23452 69.4736 4.63862 68.0585 4.63862ZM68.6701 14.4186C70.6368 14.4186 70.9966 13.589 70.9966 12.7711C70.9966 11.9648 70.6848 11.0301 68.6701 11.0301H66.4276V14.4186H68.6701ZM88.8338 18.4146C84.5406 18.4146 81.5425 16.0777 81.5425 11.9884C81.5425 7.91052 84.5166 5.57344 88.8338 5.57344C93.1869 5.57344 96.1613 7.91034 96.1613 11.9884C96.1613 16.0778 93.1632 18.4146 88.8338 18.4146ZM88.7859 15.0962C90.6567 15.0962 91.808 13.8227 91.808 11.9882C91.808 10.1421 90.6567 8.86852 88.7859 8.86852C87.023 8.86852 85.8958 10.1421 85.8958 11.9882C85.8958 13.8227 87.023 15.0962 88.7859 15.0962ZM109.405 18.4146C105.112 18.4146 102.114 16.0777 102.114 11.9884C102.114 7.91052 105.088 5.57344 109.405 5.57344C113.758 5.57344 116.733 7.91034 116.733 11.9884C116.733 16.0778 113.735 18.4146 109.405 18.4146ZM109.357 15.0962C111.228 15.0962 112.379 13.8227 112.379 11.9882C112.379 10.1421 111.228 8.86852 109.357 8.86852C107.594 8.86852 106.467 10.1421 106.467 11.9882C106.467 13.8227 107.594 15.0962 109.357 15.0962ZM132.339 18.1809L128.682 13.3203H128.142V18.1809H123.717V0.233792H128.142V10.4457H128.622L132.363 5.80704H137.22L132.279 11.6025L137.568 18.1807L132.339 18.1809ZM146.075 4.61529C144.744 4.61529 143.665 3.58704 143.665 2.29012C143.665 1.02819 144.744 0 146.075 0C147.346 0 148.425 1.02825 148.425 2.29012C148.425 3.5871 147.346 4.61529 146.075 4.61529ZM143.844 18.1809V5.80698H148.246V18.1809H143.844ZM164.692 5.57367C168.002 5.57367 169.62 7.15104 169.62 9.85011V18.1812H165.231V10.7618C165.231 9.39473 164.32 8.93905 163.265 8.93905C161.957 8.93905 160.662 9.47654 160.638 11.7199V18.1815H156.261V5.80752H160.638V7.08111C161.574 6.13469 162.977 5.57367 164.692 5.57367ZM185.851 5.80698H190V17.0826C190 22.247 187.098 24 182.925 24C178.991 24 177.025 22.446 176.149 20.1208L179.783 18.6836C180.491 20.1208 181.306 20.7401 182.757 20.7401C184.736 20.7401 185.599 19.595 185.599 17.41V16.4169C184.892 17.1763 183.597 17.7021 182.11 17.7021C178.992 17.7021 176.341 15.3535 176.341 11.6031C176.341 7.84069 178.992 5.57402 182.158 5.57402C183.812 5.57402 185.108 6.19332 185.755 7.09301L185.851 5.80698ZM183.296 14.3017C184.867 14.3017 186.043 13.1566 186.043 11.6027C186.043 10.0487 184.891 8.89185 183.296 8.89185C181.689 8.89185 180.538 10.0486 180.538 11.6027C180.538 13.1567 181.725 14.3017 183.296 14.3017Z" fill="url(#paint0_linear_64_458)"/>
<defs>
<linearGradient id="paint0_linear_64_458" x1="0" y1="0" x2="190" y2="0" gradientUnits="userSpaceOnUse">
<stop stop-color="#905E26"/>
<stop offset="0.5" stop-color="#F5EC9B"/>
<stop offset="1" stop-color="#905E26"/>
</linearGradient>
</defs>
</svg>
