<svg width="24.000000" height="24.000000" viewBox="0 0 24 24" fill="none" xmlns="http://www.w3.org/2000/svg" xmlns:xlink="http://www.w3.org/1999/xlink">
	<desc>
			Created with Pixso.
	</desc>
	<defs>
		<clipPath id="clip2_269">
			<rect id="Time" width="24.000000" height="24.000000" fill="white" fill-opacity="0"/>
		</clipPath>
	</defs>
	<g clip-path="url(#clip2_269)">
		<path id="Union" d="M21.2412 15.8277C21.7302 14.6487 22 13.3559 22 12C22 10.6441 21.7301 9.3512 21.2412 8.17209C20.7344 6.94992 19.9922 5.85001 19.071 4.92892C18.15 4.00784 17.05 3.26562 15.8279 2.75879C14.6488 2.26987 13.356 2 12 2C10.6442 2 9.35132 2.26984 8.17224 2.75873C6.94995 3.26556 5.8501 4.00781 4.92896 4.92892C4.00793 5.84998 3.26562 6.94986 2.75879 8.17203C2.2699 9.35114 2 10.644 2 12C2 13.3559 2.2699 14.6487 2.75879 15.8278C3.26562 17.05 4.00781 18.15 4.92896 19.0711C5.84998 19.9922 6.94995 20.7344 8.17224 21.2412C9.3512 21.7302 10.6442 22 12 22C13.356 22 14.6488 21.7301 15.828 21.2411C17.0502 20.7343 18.15 19.9921 19.071 19.0711C19.9922 18.15 20.7344 17.05 21.2412 15.8277ZM15.2533 4.14438C14.2532 3.72964 13.1553 3.5 12 3.5C10.8447 3.5 9.74695 3.72964 8.74683 4.14435C7.70911 4.57465 6.77368 5.20554 5.98962 5.98959C5.20557 6.77359 4.57471 7.70895 4.14441 8.74664C3.72961 9.7468 3.5 10.8447 3.5 12C3.5 13.1552 3.72961 14.2531 4.14441 15.2532C4.57471 16.291 5.20557 17.2263 5.98962 18.0104C6.77368 18.7945 7.70898 19.4253 8.74683 19.8556C9.74683 20.2704 10.8447 20.5 12 20.5C13.1553 20.5 14.2532 20.2703 15.2533 19.8556C16.291 19.4253 17.2264 18.7944 18.0104 18.0104C18.7944 17.2263 19.4253 16.2909 19.8557 15.2531C20.2704 14.2531 20.5 13.1552 20.5 12C20.5 10.8447 20.2704 9.74683 19.8556 8.74667C19.4253 7.70898 18.7944 6.77362 18.0104 5.98959C17.2263 5.20557 16.291 4.57471 15.2533 4.14438ZM12.5486 7.19757L12.5486 12.4485L15.5707 15.4707C15.8822 15.7822 15.8822 16.2873 15.5707 16.5988C15.2592 16.9103 14.7542 16.9103 14.4426 16.5988L11.1868 13.343C11.0372 13.1934 10.9531 12.9905 10.9531 12.7789L10.9531 7.19757C10.9531 6.75702 11.3103 6.3999 11.7509 6.3999C12.1914 6.3999 12.5486 6.75702 12.5486 7.19757Z" fill="#FFFFFF" fill-opacity="1.000000" fill-rule="evenodd"/>
	</g>
</svg>
