<svg width="153" height="12" viewBox="0 0 153 12" fill="none" xmlns="http://www.w3.org/2000/svg">
<path d="M6.35308 1.05537L3.89384 6.07818V11.2769C3.89384 11.7068 3.57652 11.9023 3.25919 11.9023C2.92204 11.9023 2.60472 11.6873 2.60472 11.2769V6.07818L0.0859806 1.07492C-0.330504 0.214984 0.879284 -0.293159 1.29577 0.527688L3.25919 4.39739L5.14329 0.547232C5.57961 -0.351791 6.76956 0.214984 6.35308 1.05537ZM12.8651 8.443V3.59609C12.8651 1.25081 14.0947 0 16.4746 0H16.9903C19.3504 0 20.5998 1.25081 20.5998 3.59609V8.443C20.5998 10.5928 19.152 12 16.9903 12H16.4746C14.2732 12 12.8651 10.5733 12.8651 8.443ZM16.4746 10.6906H16.9903C18.4182 10.6906 19.271 9.81107 19.271 8.443V3.59609C19.271 2.07166 18.5174 1.2899 16.9903 1.2899H16.4746C14.9674 1.2899 14.1344 2.09121 14.1344 3.59609V8.443C14.1344 9.86971 15.0467 10.6906 16.4746 10.6906ZM27.4887 8.443V0.762215C27.4887 0.351792 27.8258 0.136808 28.1431 0.136808C28.4803 0.136808 28.7976 0.351792 28.7976 0.762215V8.443C28.7976 9.85016 29.7694 10.6906 31.118 10.6906H31.6139C33.0021 10.6906 33.9541 9.7329 33.9541 8.443V0.762215C33.9541 0.351792 34.2714 0.136808 34.6086 0.136808C34.9259 0.136808 35.263 0.351792 35.263 0.762215V8.443C35.263 10.456 33.8153 12 31.6139 12H31.118C28.9166 12 27.4887 10.4951 27.4887 8.443ZM43.6393 8.48208V11.2769C43.6393 11.7068 43.3022 11.9023 42.9849 11.9023C42.6477 11.9023 42.3304 11.7068 42.3304 11.2769V0.78176C42.3304 0.39088 42.5485 0.136808 42.9849 0.136808H45.6623C46.4159 0.136808 48.7958 0.351791 48.7958 2.99023V5.43322C48.7958 6.91857 48.2405 7.85668 46.9712 8.2671L48.3198 10.9446C48.5975 11.4723 48.181 11.9023 47.7447 11.9023C47.5067 11.9023 47.2092 11.7459 47.0505 11.4137L45.6028 8.48208H43.6393ZM47.4869 5.43322V2.99023C47.4869 2.52117 47.3084 1.44625 45.6623 1.44625H43.6393V7.17264H45.4838C46.4556 7.17264 47.4869 6.95765 47.4869 5.43322ZM65.6872 9.49837C66.064 10.1629 66.5004 10.6906 67.5317 10.6906C68.9199 10.6906 69.3959 9.40065 69.3959 8.09121V0.762215C69.3959 0.332248 69.7133 0.136808 70.0306 0.136808C70.3677 0.136808 70.7247 0.351792 70.7247 0.762215V8.09121C70.7247 10.4951 69.5546 12 67.5317 12C65.8657 12 65.1121 11.101 64.5766 10.1629C64.1006 9.34202 65.2708 8.77524 65.6872 9.49837ZM77.6136 8.443V3.59609C77.6136 1.25081 78.8432 0 81.2231 0H81.7387C84.0988 0 85.3483 1.25081 85.3483 3.59609V8.443C85.3483 10.5928 83.9005 12 81.7387 12H81.2231C79.0217 12 77.6136 10.5733 77.6136 8.443ZM81.2231 10.6906H81.7387C83.1667 10.6906 84.0195 9.81107 84.0195 8.443V3.59609C84.0195 2.07166 83.2659 1.2899 81.7387 1.2899H81.2231C79.7158 1.2899 78.8829 2.09121 78.8829 3.59609V8.443C78.8829 9.86971 79.7951 10.6906 81.2231 10.6906ZM92.2371 8.443V0.762215C92.2371 0.351792 92.5743 0.136808 92.8916 0.136808C93.2288 0.136808 93.5461 0.351792 93.5461 0.762215V8.443C93.5461 9.85016 94.5179 10.6906 95.8665 10.6906H96.3623C97.7506 10.6906 98.7026 9.7329 98.7026 8.443V0.762215C98.7026 0.351792 99.0199 0.136808 99.357 0.136808C99.6743 0.136808 100.012 0.351792 100.012 0.762215V8.443C100.012 10.456 98.5637 12 96.3623 12H95.8665C93.6651 12 92.2371 10.4951 92.2371 8.443ZM108.388 8.48208V11.2769C108.388 11.7068 108.051 11.9023 107.733 11.9023C107.396 11.9023 107.079 11.7068 107.079 11.2769V0.78176C107.079 0.39088 107.297 0.136808 107.733 0.136808H110.411C111.164 0.136808 113.544 0.351791 113.544 2.99023V5.43322C113.544 6.91857 112.989 7.85668 111.72 8.2671L113.068 10.9446C113.346 11.4723 112.929 11.9023 112.493 11.9023C112.255 11.9023 111.958 11.7459 111.799 11.4137L110.351 8.48208H108.388ZM112.235 5.43322V2.99023C112.235 2.52117 112.057 1.44625 110.411 1.44625H108.388V7.17264H110.232C111.204 7.17264 112.235 6.95765 112.235 5.43322ZM127.315 0.762215V11.2769C127.315 11.6873 126.998 11.9023 126.68 11.9023C126.442 11.9023 126.125 11.7264 125.986 11.4723C124.499 8.59935 123.388 6.39088 121.901 3.49837V11.2769C121.901 11.6873 121.583 11.9023 121.246 11.9023C120.929 11.9023 120.592 11.6873 120.592 11.2769V0.762215C120.592 0.0781761 121.583 0.039088 121.802 0.449511L125.986 8.59935V0.762215C125.986 0.351792 126.304 0.136808 126.641 0.136808C126.978 0.136808 127.315 0.351792 127.315 0.762215ZM134.561 11.2182V0.820848C134.561 0.371336 134.918 0.136808 135.255 0.136808H139.816C140.253 0.136808 140.471 0.449512 140.471 0.78176C140.471 1.11401 140.253 1.44625 139.816 1.44625H135.89V5.23778H139.003C139.46 5.23778 139.678 5.55049 139.678 5.88274C139.678 6.21498 139.44 6.56677 139.003 6.56677H135.89V10.6124H139.816C140.233 10.6124 140.451 10.9446 140.451 11.2573C140.451 11.5896 140.233 11.9023 139.816 11.9023H135.255C134.918 11.9023 134.561 11.785 134.561 11.2182ZM152.913 1.05537L150.454 6.07818V11.2769C150.454 11.7068 150.136 11.9023 149.819 11.9023C149.482 11.9023 149.165 11.6873 149.165 11.2769V6.07818L146.646 1.07492C146.229 0.214984 147.439 -0.293159 147.856 0.527688L149.819 4.39739L151.703 0.547232C152.139 -0.351791 153.329 0.214984 152.913 1.05537Z" fill="url(#paint0_linear_64_459)"/>
<defs>
<linearGradient id="paint0_linear_64_459" x1="0" y1="0" x2="153" y2="0" gradientUnits="userSpaceOnUse">
<stop stop-color="#905E26"/>
<stop offset="0.5" stop-color="#F5EC9B"/>
<stop offset="1" stop-color="#905E26"/>
</linearGradient>
</defs>
</svg>
